<?xml version="1.0" encoding="utf-8"?>
<!-- Generator: Adobe Illustrator 23.0.6, SVG Export Plug-In . SVG Version: 6.00 Build 0)  -->
<svg version="1.1" id="Capa_1" xmlns="http://www.w3.org/2000/svg" xmlns:xlink="http://www.w3.org/1999/xlink" x="0px" y="0px"
	 viewBox="0 0 374 460" style="enable-background:new 0 0 374 460;" xml:space="preserve">
<style type="text/css">
	.st0{fill:#FDF3EA;}
	.st1{fill:#16A571;}
	.st2{fill:#322924;}
	.st3{fill:#154FEB;}
	.st4{fill:#3B251C;}
	.st5{fill:#FDA78A;}
	.st6{fill:#934646;}
	.st7{fill:#A55330;}
	.st8{fill:#CF846C;}
</style>
<path class="st0" d="M175.9,147.4c-46.7-3.3-85.7,3.5-92.6,15.6c-14.7,5.7-25.1,21.8-24.6,40.7c0.5,23.2,17.2,41.5,37.4,41
	c19.9-0.5,35.8-19.7,35.2-42.9c0-3.3-0.5-6.3-1.1-9.3c12.6,2.7,26.8,4.9,42,6c50.8,3.5,92.6-4.9,93.6-18.8
	C266.5,165.5,226.4,151,175.9,147.4z"/>
<path class="st1" d="M275,342.1l83.5-3.5L332,237.3c-2.2-8.7-6.3-16.9-12.6-23.8c-10.4-11.5-19.7-15.8-37.1-22.9l-16.4,6L275,342.1z
	"/>
<path class="st2" d="M358.5,339.6c0,0.8-0.3,1.6-1.1,2.5c0,0-0.3,0.3-0.3,0.5c-0.5,0.5-1.1,1.1-1.9,1.4c-2.5,1.4-6,2.7-10.4,3.5
	c-7.1,1.6-16.7,2.5-27,2.5c-12.3,0-23.5-1.6-30.9-4.1c-1.6-0.5-3-1.1-4.4-1.6h-0.3c-0.3,0-0.3-0.3-0.5-0.3c-3-1.6-4.9-3.3-4.9-5.2
	c0-1.4,1.1-2.7,3-4.1c0.5-0.3,1.1-0.5,1.9-1.1c0.5-0.3,1.4-0.5,2.2-0.8c0,0,0.3,0,0.5-0.3c7.4-2.7,19.7-4.4,33.6-4.4
	c9.6,0,18.3,1.1,25.1,2.5c4.6,1.1,8.2,2.2,10.9,3.5c0.8,0.5,1.6,1.1,2.5,1.6c0.8,0.5,1.4,1.1,1.6,1.6
	C358.2,338.6,358.5,339.1,358.5,339.6z"/>
<path class="st3" d="M307.5,418.8v4.4c0,12,0,24-0.3,36.3H75.1c0.5-9,0.5-18.8,0-29.5c0-1.6-0.3-3.3-0.3-5.2
	c-0.3-4.1-1.1-14.5-2.2-29.2c-0.8-9-1.6-19.4-2.5-31.1c0-0.5,0-1.1,0-1.4c-0.3-4.1-0.5-8.5-1.1-12.8c0-1.6-0.3-3-0.3-4.6
	c-0.5-6-0.8-12.3-1.4-18.6c0-0.8,0-1.6-0.3-2.7c-0.3-3.5-0.5-6.8-0.8-10.4c0-1.4-0.3-3-0.3-4.4c-0.3-4.4-0.5-8.5-0.8-12.8
	c0-0.8,0-1.6-0.3-2.5c-1.1-13.9-1.9-28.1-3-42c-1.1-14.5-1.9-28.9-3-42.9v-0.3c0-2.2-0.3-4.6-0.5-6.8c0-1.1,0-1.9-0.3-3
	c0-0.5,0-1.4,0-1.9c0-0.8,0-1.4,0-1.9c-0.3-2.5-0.3-4.9-0.5-7.4v-0.3c1.4-0.5,2.7-1.4,4.1-1.9c3.3-1.4,6.8-3,10.4-4.1h0.3
	c8.7-3.3,17.7-6.3,27-8.5c1.9-0.5,4.1-1.1,6-1.4c1.1-0.3,2.2-0.5,3.3-0.8c1.6-0.3,3.3-0.5,4.9-1.1c3.8-0.8,7.6-1.4,11.5-1.9
	c1.1-0.3,2.2-0.3,3.5-0.5h0.3c2.2-0.3,4.4-0.5,6.3-0.8c2.2-0.3,4.6-0.5,6.8-0.5c2.2-0.3,4.6-0.3,6.8-0.5c2.2,0,4.6-0.3,6.8-0.3
	c0.8,0,1.4,0,2.2,0c1.1,0,2.2,0,3.3,0c1.9,0,3.5,0,5.5,0c1.1,0,2.5,0,3.5,0c0.3,0,0.3,0,0.5,0c1.1,0,2.2,0,3.3,0s2.2,0,3.3,0.3
	c2.5,0,5.2,0.3,7.6,0.5c2.2,0.3,4.6,0.3,6.8,0.5c2.5,0.3,4.9,0.5,7.4,0.8c2.5,0.3,4.9,0.5,7.4,1.1c3.3,0.5,6.8,1.1,10.1,1.9
	c1.1,0.3,2.5,0.5,3.5,0.8c0.3,0,0.5,0,0.8,0.3c1.1,0.3,2.2,0.5,3.3,0.5c1.1,0.3,2.2,0.5,3.3,0.8c2.2,0.5,4.4,1.1,6.3,1.6
	c9.8,2.5,18.8,5.2,27.6,7.9c1.1,0.3,2.2,0.5,3.3,1.1c6,2.2,12,4.4,17.7,6.8c0.3,0,0.5,0.3,0.8,0.3c5.5,2.2,10.6,4.9,15.8,7.6
	c0.3,0,0.5,0.3,0.8,0.5c2.2,1.4,4.6,2.5,6.8,3.8c-0.5,21.3-0.5,42.3-0.5,63.1v2.2c0,20.5,0.3,41,0.5,61.2c0,3.8,0,7.9,0.3,11.7
	c0,3,0,6,0,9c0.3,14.7,0.3,29.2,0.5,44.2C307.5,402.2,307.5,410.6,307.5,418.8z"/>
<path class="st4" d="M293,300.9c-0.3,0-0.5,0-0.5-0.3c-11.7-19.4-35.8-25.4-56.8-30.6c-13.1-3.3-24.3-6-30.3-11.5
	c-0.3-0.3-0.3-0.5,0-0.8c0.3-0.3,0.5-0.3,0.8,0c5.7,5.2,16.9,8.2,29.8,11.2c20.2,5.2,45.3,11.5,57.6,31.1c0.3,0.3,0,0.8-0.3,0.8H293
	z"/>
<path class="st5" d="M236.2,183.2c-1.6,14.2-27.8,22.9-58.7,19.4c-30.9-3.5-54.6-17.7-53-31.9c0-1.1,0.3-2.2,0.8-3
	c35.5-5.2,72.4-3,108.7,6.6C235.7,176.9,236.5,180.2,236.2,183.2z"/>
<path class="st2" d="M118.2,290.5c-0.5,2.5,0.5,78.4-45.3,104.8c-1.4-17.7-3.3-41.8-5.2-68.8c-0.5-5.7-0.8-11.7-1.4-17.7
	c3.8-5.5,6.3-8.7,6.3-8.7L118.2,290.5z"/>
<path class="st4" d="M273.6,194.1c-0.3,0-0.3,0-0.5-0.3c0-0.3-13.4-15-25.9-19.7c-12.6-4.6-25.9-2.7-26.2-2.7
	c-0.3,0-0.8-0.3-0.8-0.5c0-0.3,0.3-0.8,0.5-0.8c0,0,13.9-2.2,26.8,2.7c12.8,4.9,25.9,19.4,26.5,19.9c0.3,0.3,0.3,0.8,0,0.8
	C273.9,194.1,273.6,194.1,273.6,194.1z"/>
<path class="st4" d="M345.7,291.3c-0.3,0-0.5-0.3-0.5-0.5c-6.3-21.3-19.7-37.1-25.4-44c-2.2-2.5-2.7-3-2.7-3.5
	c0-0.3,0.3-0.8,0.5-0.8s0.5,0.3,0.8,0.5c0.3,0.3,1.4,1.6,2.5,3c5.7,6.8,19.4,22.7,25.7,44.5C346.5,290.8,346.2,291,345.7,291.3
	C346,291.3,346,291.3,345.7,291.3z"/>
<path class="st4" d="M258.6,180.5h-0.3c-0.3-0.3-0.3-0.5-0.3-0.8s3.3-4.9,9.8-5.2h0.3c5.2,0,8.5,3.5,8.7,3.5c0.3,0.3,0.3,0.8,0,0.8
	c-0.3,0.3-0.8,0.3-0.8,0c0,0-3-3.3-7.6-3.3h-0.3c-5.7,0-8.7,4.4-8.7,4.4C259.1,180.5,258.9,180.5,258.6,180.5z"/>
<path class="st6" d="M246,38.8c2.5-6.6-3-14.7-12.3-18c-5.5-1.9-10.9-1.6-15,0.3c1.6-5.5,0.8-10.9-2.5-14.7
	c-6.3-7.6-19.7-6.8-30,1.6c-4.6,3.8-7.9,8.5-9.3,13.4c-3.3-4.4-8.7-6.8-14.7-6.6c-6.3,0.3-11.5,3.8-14.2,8.5
	c-5.2-1.4-12.3,0.3-18,5.2c-8.2,6.8-10.9,16.9-6.3,22.4c1.9,2.5,4.9,3.5,8.2,3.8c-7.9,4.1-12.6,10.4-10.6,14.7
	c0.5,1.1,1.4,1.9,2.5,2.5c-3.8,3-5.7,6.8-4.9,10.1c1.1,3.5,5.7,5.7,11.2,5.5c-2.2,21.3,22.4,4.1,25.7,24
	c3.3,19.4,41.8,17.7,41.8,19.4c0.3,4.9,20.5-21.3,23.8-19.1c9,6.6,16.7-1.9,14.7-6.8c5.5-3.8,8.7-10.4,8.5-17.7
	c-0.3-3.8-1.4-7.1-3.3-10.1c1.9-2.2,3-5.2,3-8.5c0-2.2-0.8-4.4-2.2-6l0.3-0.3c4.4-3.5,4.1-11.2-0.3-18C243.8,42.6,245.2,41,246,38.8
	z"/>
<path class="st5" d="M216.5,113.6h-60.9v76.7h60.9V113.6z"/>
<path class="st2" d="M217.9,121l-1.4,13.4c-19.4,34.7-44.2,26.2-58.2,0l-1.1-9l35.2-2.7L217.9,121z"/>
<path class="st5" d="M190.1,149.9H186c-18.8,0-34.1-17.5-34.1-36.3V65c0-9.8,7.9-17.7,17.7-17.7h53.8v67.2
	C223.4,132.7,208.3,149.9,190.1,149.9z"/>
<path class="st5" d="M154,93.4c4.4,6,4.9,13.1,1.1,15.8c-3.8,2.7-10.4,0.3-14.7-5.5c-4.4-6-4.9-13.1-1.1-15.8
	C143.1,85.2,149.6,87.4,154,93.4z"/>
<path class="st5" d="M231.4,103.4c4.4-5.9,4.9-13,1.2-15.8c-3.8-2.8-10.4-0.2-14.8,5.7c-4.4,5.9-4.9,13-1.2,15.8
	C220.4,111.9,227,109.3,231.4,103.4z"/>
<path class="st6" d="M240.6,51.1l-36.9-20.5l-17.5,8.7c-4.4-0.8-8.5,0.3-10.1,3c0,0.3,0,0.3-0.3,0.5l-5.7-0.8l-15.3,3.8l-9.3,7.9
	l0.3,10.1c-4.9,2.5-6.3,11.7-3,21.8c3.5,10.1,6.3,16.9,11.2,13.9c1.6-1.1,1.6-7.6,1.4-20.5c0-2.5-1.1-19.7,5.5-25.9
	c7.9-7.9,33.6-3.8,42-3.5c13.7,0.5,14.5,5.7,15,13.7c0.8,13.1,3,24.8,15.3,25.7c8.7,0.5,15.8-8.7,16.1-19.7c0,0,0,0,0-0.3
	C249,62.3,246.3,54.6,240.6,51.1z"/>
<path class="st2" d="M174.2,89.3c0,2.2-1.9,4.1-4.1,4.1c-2.2,0-4.1-1.9-4.1-4.1c0-2.2,1.9-4.1,4.1-4.1
	C172.6,85.2,174.2,87.1,174.2,89.3z"/>
<path class="st4" d="M162.2,87.6h-0.3c-0.3-0.3-0.5-0.5-0.3-0.8c0-0.3,3-5.5,8.2-5.5c5.5-0.3,7.4,4.4,7.4,4.6c0,0.3,0,0.8-0.3,0.8
	c-0.3,0.3-0.8,0-0.8-0.3c0-0.3-1.6-3.8-6-3.5c-4.6,0.3-7.1,4.9-7.1,4.9C162.8,87.6,162.5,87.6,162.2,87.6z"/>
<path class="st2" d="M210.5,89.3c0,2.2-1.9,4.1-4.1,4.1c-2.2,0-4.1-1.9-4.1-4.1c0-2.2,1.9-4.1,4.1-4.1
	C208.6,85.2,210.5,87.1,210.5,89.3z"/>
<path class="st4" d="M198.8,87.6h-0.3c-0.3-0.3-0.5-0.5-0.3-0.8c0-0.3,2.5-5.5,7.9-5.5c5.5-0.3,7.4,4.4,7.4,4.6c0,0.3,0,0.8-0.3,0.8
	c-0.3,0.3-0.8,0-0.8-0.3s-1.6-3.5-5.7-3.5h-0.3c-4.6,0.3-6.8,4.6-6.8,4.9C199.3,87.6,199.1,87.6,198.8,87.6z"/>
<path class="st7" d="M187.9,108.1c-3.3,0-6.6-1.4-7.6-2.7c-0.3-0.3,0-0.8,0.3-0.8c0.3-0.3,0.8,0,0.8,0.3c0.5,0.8,3.6,2.2,6.6,2.2
	c1.9,0,4.4-0.5,5.7-3c0.3-0.3,0.5-0.5,0.8-0.3c0.3,0.3,0.5,0.5,0.3,0.8C193.6,106.8,191.1,108.1,187.9,108.1z"/>
<path class="st4" d="M152.9,75.1c4.1-8.7,16.1-11.5,24.8-8.2c2.2,1.1,1.1,4.4-1.1,4.1c-3.5-0.5-7.6-0.3-11.5,0.5
	c-3.5,0.8-7.1,2.2-9.6,4.9C154.6,77.8,152.4,76.7,152.9,75.1z"/>
<path class="st4" d="M220.1,76.7c-6.6-4.1-13.7-6-21.6-5.7c-2.5,0-3-3.5-0.5-4.4c4.1-1.4,9-1.4,13.4,0.3c2.5,0.5,13.4,7.1,10.6,9.6
	C221.2,77,220.6,77,220.1,76.7z"/>
<path class="st4" d="M118.5,82.5c-0.3,0-0.5-0.3-0.5-0.5c-1.6-12.3,18-16.7,18.8-16.9c0.3,0,0.8,0.3,0.8,0.5c0,0.3-0.3,0.8-0.5,0.8
	c-0.3,0-19.4,4.4-17.7,15.3C119.1,82.2,118.8,82.5,118.5,82.5z"/>
<path class="st4" d="M234.3,90.1c-10.4,0-15-10.1-15-10.1c-0.3-0.3,0-0.8,0.3-0.8c0.3-0.3,0.8,0,0.8,0.3c0,0,4.9,10.1,15,9.3
	c10.1-0.8,13.1-17.2,13.1-17.2c0.5-16.9-8.5-21-19.9-25.9c-4.9-2.2-9.8-4.4-14.7-7.6c-0.3-0.3-0.3-0.5-0.3-0.8
	c0.3-0.3,0.5-0.3,0.8-0.3c4.6,3.3,9.6,5.5,14.5,7.6c11.5,4.9,21.3,9.3,20.5,27.3c0,0.8-3,17.5-14.2,18.6
	C235.1,90.1,234.8,90.1,234.3,90.1z"/>
<path class="st4" d="M130.3,96.7c-0.3,0-0.5-0.3-0.5-0.3c-2.7-6-1.1-10.1,0.8-12.6c3-3.5,7.9-5.2,10.1-4.6c0.3,0,0.5,0.5,0.5,0.8
	c0,0.3-0.5,0.5-0.8,0.5c-1.9-0.5-6.3,1.1-8.7,4.1c-1.6,2.2-3.3,5.7-0.5,11.2c0.3,0.3,0,0.8-0.3,0.8S130.5,96.7,130.3,96.7z"/>
<path class="st4" d="M174.2,31.1c-0.3,0-0.3,0-0.5-0.3c-0.5-0.8,0.5-6,2.5-10.1c3-7.1,10.9-19.1,27.8-20.8c0.3,0,0.8,0.3,0.8,0.5
	s-0.3,0.8-0.5,0.8c-9,0.8-16.4,4.6-21.8,11.5c-6,7.4-7.6,16.1-7.4,17.2c0,0.3,0,0.5-0.3,0.8C174.5,31.1,174.5,31.1,174.2,31.1z"/>
<path class="st4" d="M207.8,28.7c-0.3,0-0.5,0-0.5-0.3c-0.3-0.3,0-0.8,0.3-0.8c0,0,0.3,0,0.3-0.3c4.9-4.4,17.5-13.7,31.4-4.4
	c0.3,0.3,0.3,0.5,0.3,0.8c-0.3,0.3-0.5,0.3-0.8,0.3c-13.1-8.5-25.1,0.3-29.8,4.4c-0.5,0-0.8,0-0.8,0
	C208.1,28.7,207.8,28.7,207.8,28.7z"/>
<path class="st6" d="M166.6,29.5c-0.3,0-0.5-0.3-0.5-0.5c0-0.3,0-0.8,0.5-0.8c9-2.5,9.8-9.6,9.8-12.6c0-4.1-1.6-7.4-3.3-7.9
	c-0.3,0-0.5-0.5-0.5-0.8c0-0.3,0.5-0.5,0.8-0.5c2.5,0.5,4.4,4.6,4.4,9C177.8,22.4,173.7,27.6,166.6,29.5
	C166.9,29.5,166.9,29.5,166.6,29.5z"/>
<path class="st6" d="M170.1,47.5c2.2,2.7,2.7,6,0.8,7.6c-1.9,1.6-5.2,0.8-7.6-1.9c-2.2-2.7-2.7-6-0.8-7.6
	C164.4,44.2,167.7,45,170.1,47.5z"/>
<path class="st6" d="M163.8,52.7c0.8,4.1-0.8,7.9-3.8,8.5c-3,0.5-6-2.5-6.8-6.6c-0.8-4.1,0.8-7.9,3.8-8.5
	C160,45.6,163,48.3,163.8,52.7z"/>
<path class="st6" d="M218.2,61.4c-2.2,1.1-4.6,1.1-5.5-0.5c-0.8-1.4,0.3-3.8,2.2-4.9c2.2-1.1,4.6-1.1,5.5,0.5
	C221.2,57.9,220.1,60.1,218.2,61.4z"/>
<path class="st6" d="M210.3,48.3c-2.7,5.7-8.2,8.7-12,6.8c-4.1-1.9-4.9-7.9-2.5-13.7c2.7-5.7,8.2-8.7,12-6.8
	C211.9,36.6,213,42.9,210.3,48.3z"/>
<path class="st4" d="M157,30.3c-0.3,0-0.5-0.3-0.5-0.3c-0.3-0.3-4.1-8.5-16.4-6c-0.3,0-0.8-0.3-0.8-0.5s0.3-0.8,0.5-0.8
	c13.7-2.7,18,6.6,18,6.8c0.3,0.3,0,0.8-0.3,0.8C157.3,30.3,157,30.3,157,30.3z"/>
<path class="st4" d="M163.3,59.2H163c-0.3-0.3-0.5-0.5-0.3-0.8c2.7-5.2-1.4-10.1-1.6-10.4c-0.3-0.3-0.3-0.8,0-0.8
	c0.3-0.3,0.8-0.3,0.8,0c0.3,0.3,4.9,5.7,1.9,11.7C163.6,59.2,163.6,59.2,163.3,59.2z"/>
<path class="st8" d="M178,124.2c0,0,4.9,2.2,9.8,2.5c3.5,0,9.3-2.5,9.3-2.5s-2.7,7.6-9.6,7.6C182.4,131.6,178,124.2,178,124.2z"/>
<path class="st2" d="M199.3,121.5c0,3.3-5.2,7.1-11.7,7.1c-6.6,0-11.7-4.4-11.7-7.9c0-3.6,5.2-4.4,11.7-4.4
	C194.2,116.6,199.3,118.2,199.3,121.5z"/>
<path class="st3" d="M119.6,187.8L103,243l-25.4,84.1L56,320.5l-55.2-21l52.4-95.3c3.8-7.1,9.3-12.8,15.8-16.7
	c3.5-1.9,7.1-3.5,10.9-4.6c6.6-1.6,13.9-1.9,21,0L119.6,187.8z"/>
<path class="st2" d="M80.8,313.2c-0.3,1.6-0.8,3.3-1.9,4.6c-5.5,6.8-21.6,10.1-40.4,7.6c-15.3-2.2-28.1-7.6-34.4-14.2
	c-2.7-3-4.4-6-4.1-9c0.3-3.8,3.3-6.8,8.2-9c7.9-3.5,20.2-4.9,34.1-3.3c19.9,2.7,36,11.2,38.2,19.9C80.8,311,81.1,312.1,80.8,313.2z"
	/>
<path class="st0" d="M165.5,348.7c-8.2-54.1-6.3-109.8-34.9-158.4c-4.6-7.9-18.6-22.1-31.1-21.8c-9.6,0.3-18.3,5.2-27.3,8.5
	c-1.1,0.3-2.2,0.8-3.3,1.4c-1.4-0.5-3-0.8-4.6-1.1c-9.6-0.8-13.9,4.6-15.6,8.7c-1.1,2.5,0.3,5.5,3,6.3c2.2,0.5,4.1,1.6,6,2.5
	c10.4,5.5,19.4,15.8,25.9,24.8c3.8,5.2,7.1,10.6,10.1,16.7c1.1,2.2,2.2,4.1,3,6.3c12,25.4,17.7,57.9,20.8,85.7
	c2.2,20.5,5.2,56.2,4.1,76.7l44.8-3C166.8,401.9,167.1,358.5,165.5,348.7z"/>
<path class="st5" d="M75.7,350.8c-4.1,15.3-17.5,27-35.2,30.3c0,0,0,0-0.3,0c-18.3,3.8-31.1-9-33.6-22.4
	c-2.7-16.1,1.9-38.5,10.4-60.3c1.1-3,2.2-6,3.3-8.7c7.4-1.1,19.1-0.5,32.2,1.6c15.8,2.7,29.5,7.4,34.9,11.5c1.1,0.8,1.9,1.6,2.2,2.5
	l-1.4,3.5C83.8,321.6,79.2,337.7,75.7,350.8z"/>
<path class="st4" d="M90.1,200.7c-0.3,0-0.5,0-0.5-0.3c-16.4-26.8-30.6-20.8-30.9-20.8c-0.3,0.3-0.8,0-0.8-0.3
	c-0.3-0.3,0-0.8,0.3-0.8c0.5-0.3,15.6-6.6,32.5,21.3c0.3,0.3,0,0.8-0.3,0.8H90.1z"/>
<path class="st4" d="M69.4,180.2c-0.3,0-0.5,0-0.5-0.3c-0.3-0.3,0-0.8,0.3-0.8c0.5-0.3,13.4-9,26.5-9.3c15.8-0.3,20.2,5.5,20.5,5.7
	c0.3,0.3,0.3,0.8,0,0.8c-0.3,0.3-0.8,0.3-0.8,0c0,0-4.4-5.5-19.4-5.2c-12.6,0.3-25.4,9-25.7,9.3C69.6,180.2,69.4,180.2,69.4,180.2z"
	/>
<path class="st4" d="M83.6,173.1c-0.3,0-0.3,0-0.5-0.3c0,0-5.5-5.5,1.1-12.6c6.3-6.8,27-11.2,27.8-11.2c0.3,0,0.8,0.3,0.8,0.5
	c0,0.3-0.3,0.8-0.5,0.8c-0.3,0-21,4.4-27,10.9c-5.7,6-1.4,10.6-1.1,10.6c0.3,0.3,0.3,0.8,0,0.8C84.1,173.1,83.8,173.1,83.6,173.1z"
	/>
<path class="st5" d="M168.8,170.6c0,0-20.2,75.6-68.3,152.6c-13.1,20.8-33.3,50.5-48.3,54.1c1.9,1.4-15.3-11.2-24.3-26.2
	c-12.3-20.5-8.5-47,6.6-65.5l29.2-36l78.4-99.7L168.8,170.6z"/>
<path class="st4" d="M6.6,292.1H6.3C6,291.9,6,291.6,6,291.3c13.4-20.8,40.7-28.7,44.2-27.8c0.3,0,0.5,0.5,0.5,0.8s-0.5,0.5-0.8,0.5
	c-2.5-0.5-28.9,6.3-42.6,27.3C7.1,292.1,6.9,292.1,6.6,292.1z"/>
<path class="st5" d="M168.2,172l-27.6-18.8l-7.4-32.2c-0.3-3.3,2.5-6.3,5.7-6.6l12.6-0.8l16.4,19.4c6,7.1,7.6,16.7,4.9,25.4
	L168.2,172z"/>
<path class="st5" d="M133.8,122.6c-0.8-10.6-0.8-21,4.1-31.4c3.5-6,9.6-15.6,13.4-21.3c1.6-2.7,5.7-0.8,4.9,2.2
	c-2.5,8.5-6,16.1-9.8,23.8c-1.6,3.8-1.6,8.2-1.6,12.8c0,4.4,0.3,8.7,0.5,12.8C145.8,129.1,134.6,130,133.8,122.6z"/>
<path class="st5" d="M146.4,124c-3.3-9.3-5.5-18.8-2.5-28.4c0.3-0.5,0.5-1.6,1.1-2.2c0.5-0.8,3.5-5.2,4.1-6c2.2-3,4.6-6,7.1-9
	c1.1-1.1,2.7-1.1,3.8-0.3c0.8,0.8,1.1,1.9,0.8,3c-1.4,3.5-3,7.1-4.6,10.4l-2.2,5.2l-0.5,1.1c0,0.3,0.3-0.5,0,0
	c-1.4,7.1,1.6,15.3,3.8,22.1C159.8,127.2,149.4,131.1,146.4,124z"/>
<path class="st7" d="M158.7,202.3C158.7,202.3,158.4,202.3,158.7,202.3c-0.5,0-0.8-0.5-0.5-0.8c0-0.3,13.4-41,15.6-54.1
	c1.6-10.1-7.6-18.6-13.4-23.8c-1.6-1.4-2.7-2.5-3.6-3.3c-3.5-4.1-5.7-19.7-5.7-20.2v-0.3c0.3-0.5,5.7-13.1,8.2-17.2
	c1.6-2.7,0-4.6-0.8-5.2c-2.2,2.2-13.9,13.1-14.5,19.1c-0.8,6.6,0,26.2,0,26.5c0,0.3-0.3,0.5-0.5,0.5c-0.3,0-0.5-0.3-0.5-0.5
	c0-0.8-0.8-19.9,0-26.5c0.8-6.8,14.7-19.7,15.3-20.2c0.3-0.3,0.5-0.3,0.8,0c1.4,0.8,3.5,3.5,1.4,7.1c-2.2,3.5-7.4,15.3-7.9,16.9
	c0.3,1.6,2.2,15.8,5.5,19.4c0.5,0.8,1.9,1.9,3.3,3.3c5.7,5.2,15.6,13.9,13.7,24.8c-2.2,13.1-15.6,53.8-15.8,54.1
	C159.2,202,158.9,202.3,158.7,202.3z"/>
<path class="st3" d="M254.4,188.3l16.7,55.2l25.4,84.1L318,321l55.1-21l-52.4-95.3c-3.8-7.1-9.3-12.8-15.8-16.7
	c-3.5-1.9-7.1-3.5-10.9-4.6c-6.6-1.6-13.9-1.9-21,0L254.4,188.3z"/>
<path class="st2" d="M293.2,313.6c0.3,1.6,0.8,3.3,1.9,4.6c5.5,6.8,21.6,10.1,40.4,7.6c15.3-2.2,28.1-7.6,34.4-14.2
	c2.7-3,4.4-6,4.1-9c-0.3-3.8-3.3-6.8-8.2-9c-7.9-3.5-20.2-4.9-34.1-3.3c-19.9,2.7-36,11.2-38.2,19.9
	C293.2,311.4,292.9,312.5,293.2,313.6z"/>
<path class="st0" d="M208.5,349.1c8.2-54.1,6.3-109.8,34.9-158.4c4.6-7.9,18.6-22.1,31.1-21.8c9.6,0.3,18.3,5.2,27.3,8.5
	c1.1,0.3,2.2,0.8,3.3,1.4c1.4-0.5,3-0.8,4.6-1.1c9.6-0.8,13.9,4.6,15.6,8.7c1.1,2.5-0.3,5.5-3,6.3c-2.2,0.5-4.1,1.6-6,2.5
	c-10.4,5.5-19.4,15.8-25.9,24.8c-3.8,5.2-7.1,10.6-10.1,16.7c-1.1,2.2-2.2,4.1-3,6.3c-12,25.4-17.7,57.9-20.7,85.7
	c-2.2,20.5-5.2,56.2-4.1,76.7l-44.8-3C207.2,402.3,206.9,358.9,208.5,349.1z"/>
<path class="st2" d="M251.8,405.3c-0.2,2.2-10.3,3.3-22.5,2.4c-12.3-0.8-22.2-3-22.2-5.2c0.2-2.2,10.3-3.3,22.5-2.4
	C241.8,400.9,251.7,403.4,251.8,405.3z"/>
<path class="st5" d="M298.3,351.3c4.1,15.3,17.5,27,35.2,30.3c0,0,0,0,0.3,0c18.3,3.8,31.1-9,33.6-22.4c2.7-16.1-1.9-38.5-10.4-60.3
	c-1.1-3-2.2-6-3.3-8.7c-7.4-1.1-19.1-0.5-32.2,1.6c-15.8,2.7-29.5,7.4-34.9,11.5c-1.1,0.8-1.9,1.6-2.2,2.5l1.4,3.6
	C290.2,322,294.8,338.2,298.3,351.3z"/>
<path class="st4" d="M283.9,201.1c0.3,0,0.5,0,0.5-0.3c16.4-26.8,30.6-20.8,30.9-20.8c0.3,0.3,0.8,0,0.8-0.3c0.3-0.3,0-0.8-0.3-0.8
	c-0.5-0.3-15.6-6.6-32.5,21.3c-0.3,0.3,0,0.8,0.3,0.8H283.9z"/>
<path class="st4" d="M304.6,180.6c0.3,0,0.5,0,0.5-0.3c0.3-0.3,0-0.8-0.3-0.8c-0.5-0.3-13.4-9-26.5-9.3c-15.8-0.3-20.2,5.5-20.5,5.7
	s-0.3,0.8,0,0.8c0.3,0.3,0.8,0.3,0.8,0c0,0,4.4-5.5,19.4-5.2c12.6,0.3,25.4,9,25.7,9.3C304.4,180.6,304.6,180.6,304.6,180.6z"/>
<path class="st4" d="M290.4,173.5c0.3,0,0.3,0,0.5-0.3c0,0,5.5-5.5-1.1-12.6c-6.3-6.8-27-11.2-27.8-11.2c-0.3,0-0.8,0.3-0.8,0.5
	c0,0.3,0.3,0.8,0.5,0.8c0.3,0,21,4.4,27,10.9c5.7,6,1.4,10.6,1.1,10.6c-0.3,0.3-0.3,0.8,0,0.8C289.9,173.5,290.2,173.5,290.4,173.5z
	"/>
<path class="st5" d="M205.3,171.1c0,0,20.2,75.6,68.3,152.6c13.1,20.8,33.3,50.5,48.3,54.1c-1.9,1.4,15.3-11.2,24.3-26.2
	c12.3-20.5,8.5-47-6.6-65.5l-29.2-36L232,150.3L205.3,171.1z"/>
<path class="st4" d="M367.4,292.6h0.3c0.3-0.3,0.3-0.5,0.3-0.8c-13.4-20.8-40.7-28.7-44.2-27.8c-0.3,0-0.5,0.5-0.5,0.8
	c0,0.3,0.5,0.5,0.8,0.5c2.5-0.5,28.9,6.3,42.6,27.3C366.9,292.6,367.1,292.6,367.4,292.6z"/>
<path class="st5" d="M205.8,172.4l27.6-18.8l7.4-32.2c0.3-3.3-2.5-6.3-5.7-6.6l-12.6-0.8l-16.4,19.4c-6,7.1-7.6,16.7-4.9,25.4
	L205.8,172.4z"/>
<path class="st5" d="M240.2,123c0.8-10.6,0.8-21-4.1-31.4c-3.5-6-9.6-15.6-13.4-21.3c-1.6-2.7-5.7-0.8-4.9,2.2
	c2.5,8.5,6,16.1,9.8,23.8c1.6,3.8,1.6,8.2,1.6,12.8c0,4.4-0.3,8.7-0.5,12.8C228.2,129.6,239.4,130.4,240.2,123z"/>
<path class="st5" d="M227.6,124.4c3.3-9.3,5.5-18.8,2.5-28.4c-0.3-0.5-0.5-1.6-1.1-2.2c-0.5-0.8-3.5-5.2-4.1-6c-2.2-3-4.6-6-7.1-9
	c-1.1-1.1-2.7-1.1-3.8-0.3c-0.8,0.8-1.1,1.9-0.8,3c1.4,3.5,3,7.1,4.6,10.4l2.2,5.2l0.5,1.1c0,0.3-0.3-0.5,0,0
	c1.4,7.1-1.6,15.3-3.8,22.1C214.3,127.7,224.6,131.5,227.6,124.4z"/>
<path class="st7" d="M215.3,202.7C215.3,202.7,215.6,202.7,215.3,202.7c0.5,0,0.8-0.5,0.5-0.8c0-0.3-13.4-41-15.6-54.1
	c-1.6-10.1,7.6-18.6,13.4-23.8c1.6-1.4,2.7-2.5,3.6-3.3c3.5-4.1,5.7-19.7,5.7-20.2v-0.3c-0.3-0.5-5.7-13.1-8.2-17.2
	c-1.6-2.7,0-4.6,0.8-5.2c2.2,2.2,13.9,13.1,14.5,19.1c0.8,6.6,0,26.2,0,26.5s0.3,0.5,0.5,0.5s0.5-0.3,0.5-0.5c0-0.8,0.8-19.9,0-26.5
	c-0.8-6.8-14.7-19.7-15.3-20.2c-0.3-0.3-0.5-0.3-0.8,0c-1.4,0.8-3.5,3.5-1.4,7.1c2.2,3.5,7.4,15.3,7.9,16.9
	c-0.3,1.6-2.2,15.8-5.5,19.4c-0.5,0.8-1.9,1.9-3.3,3.3c-5.7,5.2-15.6,13.9-13.6,24.8c2.2,13.1,15.6,53.8,15.8,54.1
	C214.8,202.5,215.1,202.7,215.3,202.7z"/>
<path class="st7" d="M153.2,82.7h-0.3c-0.3-0.3-0.3-0.5-0.3-0.8c0,0,1.9-3,2.5-7.9c0.3-4.6-1.4-5.5-1.4-5.5c-0.3,0-0.5-0.5-0.3-0.8
	c0-0.3,0.5-0.5,0.8-0.3c0.3,0,2.5,1.1,2.2,6.8c-0.3,5.5-2.5,8.5-2.5,8.7C153.7,82.5,153.5,82.7,153.2,82.7z"/>
<path class="st7" d="M20.5,324.4c-0.3,0-0.5-0.3-0.5-0.5c1.9-18.8,7.9-33.6,17.7-43.1c0.3-0.3,0.3-0.3,0.5-0.5
	c0.3-0.3,0.5-0.3,0.8,0c0.3,0.3,0.3,0.5,0,0.8c0,0-0.3,0.3-0.5,0.5c-9.6,9-15.6,23.8-17.2,42.3C21.1,324.4,20.8,324.4,20.5,324.4z"
	/>
<path class="st2" d="M166.8,401.9c0,2.2-9.8,4.4-22.1,4.9c-12.3,0.5-22.4-0.5-22.7-2.7c0-2.2,9.8-4.4,22.1-4.9
	C156.5,398.6,166.6,400,166.8,401.9z"/>
</svg>
