<svg width="121" height="49" viewBox="0 0 121 49" fill="none" xmlns="http://www.w3.org/2000/svg">
<path d="M11.88 37.504C9.576 37.504 7.392 37.312 5.328 36.928C3.288 36.52 1.716 36.064 0.612 35.56V28.432H8.532C8.532 29.176 8.7 29.716 9.036 30.052C9.372 30.388 9.984 30.556 10.872 30.556C11.616 30.556 12.144 30.448 12.456 30.232C12.792 29.992 12.96 29.644 12.96 29.188C12.96 28.804 12.804 28.48 12.492 28.216C12.18 27.928 11.64 27.64 10.872 27.352L7.776 26.272C5.112 25.264 3.192 24.076 2.016 22.708C0.864 21.34 0.288 19.492 0.288 17.164C0.288 14.332 1.212 12.184 3.06 10.72C4.932 9.232 8.04 8.488 12.384 8.488C14.472 8.488 16.428 8.704 18.252 9.136C20.1 9.544 21.588 10.096 22.716 10.792V17.236H15.516C15.516 16.036 14.772 15.436 13.284 15.436C12.564 15.436 12.048 15.532 11.736 15.724C11.448 15.892 11.304 16.204 11.304 16.66C11.304 17.068 11.472 17.392 11.808 17.632C12.168 17.872 12.744 18.124 13.536 18.388L16.668 19.468C19.212 20.332 21.06 21.46 22.212 22.852C23.388 24.22 23.976 26.02 23.976 28.252C23.976 31.3 22.944 33.604 20.88 35.164C18.84 36.724 15.84 37.504 11.88 37.504ZM45.8938 31.096V37H36.3898V34.552C35.8618 35.32 35.1178 36.004 34.1578 36.604C33.2218 37.204 32.0698 37.504 30.7018 37.504C28.9018 37.504 27.4858 37.024 26.4538 36.064C25.4218 35.104 24.9058 33.748 24.9058 31.996C24.9058 27.46 28.7578 25.132 36.4618 25.012C36.3898 24.196 36.0778 23.644 35.5258 23.356C34.9738 23.044 34.0378 22.888 32.7178 22.888C31.6378 22.888 30.4738 23.008 29.2258 23.248C28.0018 23.464 26.8738 23.764 25.8418 24.148V17.524C27.1138 17.212 28.4938 16.96 29.9818 16.768C31.4698 16.576 32.9218 16.48 34.3378 16.48C37.9138 16.48 40.4698 17.128 42.0058 18.424C43.5418 19.72 44.3098 21.724 44.3098 24.436V31.096H45.8938ZM36.3898 28.576C35.3098 28.576 34.4698 28.72 33.8698 29.008C33.2938 29.296 33.0058 29.776 33.0058 30.448C33.0058 30.856 33.1258 31.192 33.3658 31.456C33.6298 31.696 33.9898 31.816 34.4458 31.816C35.0698 31.816 35.5498 31.552 35.8858 31.024C36.2218 30.496 36.3898 29.752 36.3898 28.792V28.576ZM83.4142 31.096V37H72.0383V31.096H73.5503V25.192C73.5503 24.4 73.3823 23.824 73.0463 23.464C72.7103 23.08 72.2063 22.888 71.5343 22.888C70.0943 22.888 69.3743 23.656 69.3743 25.192V31.096H70.8863V37H59.5823V31.096H61.0943V25.192C61.0943 24.4 60.9263 23.824 60.5903 23.464C60.2543 23.08 59.7503 22.888 59.0783 22.888C57.6383 22.888 56.9183 23.656 56.9183 25.192V31.096H58.4303V37H47.0543V31.096H48.6383V22.888H47.0543V16.984H56.9183V19.792C58.6463 17.584 60.8063 16.48 63.3983 16.48C64.8623 16.48 66.0503 16.828 66.9623 17.524C67.8983 18.196 68.5583 19.156 68.9423 20.404C69.8063 19.156 70.7903 18.196 71.8943 17.524C73.0223 16.852 74.3423 16.516 75.8543 16.516C77.8463 16.516 79.3343 17.14 80.3183 18.388C81.3263 19.636 81.8303 21.352 81.8303 23.536V31.096H83.4142ZM84.422 39.088H86.006V22.888H84.422V16.984H94.286V19.432C94.886 18.664 95.654 17.98 96.59 17.38C97.55 16.78 98.642 16.48 99.866 16.48C102.314 16.48 104.15 17.392 105.374 19.216C106.622 21.04 107.246 23.632 107.246 26.992C107.246 30.352 106.622 32.944 105.374 34.768C104.15 36.592 102.314 37.504 99.866 37.504C98.642 37.504 97.55 37.204 96.59 36.604C95.654 36.004 94.886 35.32 94.286 34.552V39.088H96.77V44.992H84.422V39.088ZM96.374 31.096C97.07 31.096 97.586 30.916 97.922 30.556C98.282 30.172 98.462 29.584 98.462 28.792V25.192C98.462 24.4 98.282 23.824 97.922 23.464C97.586 23.08 97.07 22.888 96.374 22.888C95.678 22.888 95.15 23.08 94.79 23.464C94.454 23.824 94.286 24.4 94.286 25.192V28.792C94.286 29.584 94.454 30.172 94.79 30.556C95.15 30.916 95.678 31.096 96.374 31.096ZM109.989 15.004V8.992H117.333V15.004H109.989ZM108.261 37V31.096H109.845V22.888H108.261V16.984H118.125V31.096H119.709V37H108.261Z" fill="#154FEB"/>
</svg>
